<svg class="del" xmlns="http://www.w3.org/2000/svg">
    <defs>
        <symbol id="delete" data-name="delete" viewBox="0 0 448 512">
            <path d="M135.2 17.7C140.6 6.8 151.7 0 163.8 0H284.2c12.1 0 23.2 6.8 28.6 17.7L320 32h96c17.7 0 32 
                14.3 32 32s-14.3 32-32 32H32C14.3 96 0 81.7 0 64S14.3 32 32 32h96l7.2-14.3zM32 128H416V448c0 35.3-28.7 
                64-64 64H96c-35.3 0-64-28.7-64-64V128zm96 64c-8.8 0-16 7.2-16 16V432c0 8.8 7.2 16 16 16s16-7.2 
                16-16V208c0-8.8-7.2-16-16-16zm96 0c-8.8 0-16 7.2-16 16V432c0 8.8 7.2 16 16 16s16-7.2 
                16-16V208c0-8.8-7.2-16-16-16zm96 0c-8.8 0-16 7.2-16 16V432c0 8.8 7.2 16 16 16s16-7.2 
                16-16V208c0-8.8-7.2-16-16-16z" fill="currentColor"/>
        </symbol>
        <symbol id="addUser" data-name="addUser" viewBox="0 0 32 32">
            <path d="M15.8 16.6c3.5 0 6.3-2.8 6.3-6.3S19.2 4 15.8 4s-6.3 2.8-6.3 6.3S12.3 16.6 15.8 16.6zM15.8 
                6.5c2.1 0 3.8 1.7 3.8 3.8s-1.7 3.8-3.8 3.8S12 12.4 12 10.3 13.7 6.5 15.8 6.5zM21.1 
                20.2c.3-.6.1-1.4-.5-1.7-1.3-.7-2.8-1.1-4.3-1.1h-1c-5.1 0-9.3 4.2-9.3 9.3C6 27.4 6.5 28 7.2 
                28s1.3-.6 1.3-1.3c0-3.7 3-6.7 6.7-6.7h1c1.1 0 2.2.3 3.1.8C20 21.1 20.7 20.8 21.1 20.2zM26.5 
                23h-1.3v-1.3c0-.7-.6-1.3-1.3-1.3-.7 0-1.3.6-1.3 1.3V23h-1.3c-.7 0-1.3.6-1.3 1.3 0 .7.6 1.3 1.3 
                1.3h1.3v1.3c0 .7.6 1.3 1.3 1.3.7 0 1.3-.6 1.3-1.3v-1.3h1.3c.7 0 1.3-.6 1.3-1.3C27.8 23.5 
                27.2 23 26.5 23z" fill="currentColor"/>
        </symbol>
    </defs>
    <view id="delete-view" viewBox="0 0 448 512"/>
    <view id="addUser-view" viewBox="0 50 6.35 6.35"/>
    <use width="50" height="50" transform="translate(0 0)" href="#delete"/>
    <use width="50" height="50" transform="translate(0 50)" href="#addUser"/>
</svg>