<svg class="del" xmlns="http://www.w3.org/2000/svg">
    <defs>
        <symbol id="delete" data-name="delete" viewBox="0 0 24 24">
            <path d="M10 2a5 5 0 1 0 5 5A5 5 0 0 0 10 2zm0 8a3 3 0 1 1 3-3A3 3 0 0 1 10 10zM13.47 
                14H5a3 3 0 0 0-3 3v2a1 1 0 0 0 2 0V17a1 1 0 0 1 1-1h8.47a1 1 0 0 0 0-2zM20.41 19l1.3-1.29a1 
                1 0 0 0-1.42-1.42L19 17.59l-1.29-1.3a1 1 0 0 0-1.42 1.42L17.59 19l-1.3 1.29a1 1 0 0 0 0 1.42 1 1 0 0 
                0 1.42 0L19 20.41l1.29 1.3a1 1 0 0 0 1.42 0 1 1 0 0 0 0-1.42z" fill="currentColor"/>
        </symbol>
        <symbol id="addUser" data-name="addUser" viewBox="0 0 32 32">
            <path d="M15.8 16.6c3.5 0 6.3-2.8 6.3-6.3S19.2 4 15.8 4s-6.3 2.8-6.3 6.3S12.3 16.6 15.8 16.6zM15.8 
                6.5c2.1 0 3.8 1.7 3.8 3.8s-1.7 3.8-3.8 3.8S12 12.4 12 10.3 13.7 6.5 15.8 6.5zM21.1 
                20.2c.3-.6.1-1.4-.5-1.7-1.3-.7-2.8-1.1-4.3-1.1h-1c-5.1 0-9.3 4.2-9.3 9.3C6 27.4 6.5 28 7.2 
                28s1.3-.6 1.3-1.3c0-3.7 3-6.7 6.7-6.7h1c1.1 0 2.2.3 3.1.8C20 21.1 20.7 20.8 21.1 20.2zM26.5 
                23h-1.3v-1.3c0-.7-.6-1.3-1.3-1.3-.7 0-1.3.6-1.3 1.3V23h-1.3c-.7 0-1.3.6-1.3 1.3 0 .7.6 1.3 1.3 
                1.3h1.3v1.3c0 .7.6 1.3 1.3 1.3.7 0 1.3-.6 1.3-1.3v-1.3h1.3c.7 0 1.3-.6 1.3-1.3C27.8 23.5 
                27.2 23 26.5 23z" fill="currentColor"/>
        </symbol>
        <symbol id="search" data-name="search" viewBox="0 0 48 48">
            <path d="M46.599 40.236L36.054 29.691C37.89 26.718 39 23.25 39 19.5 39 8.73 30.27 0 19.5 0S0 8.73 
                0 19.5 8.73 39 19.5 39c3.75 0 7.218-1.11 10.188-2.943l10.548 10.545a4.501 4.501 0 0 0 
                6.363-6.366zM19.5 33C12.045 33 6 26.955 6 19.5S12.045 6 19.5 6 33 12.045 33 19.5 26.955 
                33 19.5 33z" fill="currentColor"/>
        </symbol>
        <symbol id="rent" data-name="rent" viewBox="0 0 512 512">
            <path fill="currentColor" d="M431.5,234H416.45L286.78,112.678a34.016,34.016,0,0,0,3.72-15.49,34.5,34.5,0,0,0-69,
                .046,33.789,33.789,0,0,0,3.72,15.436L95.55,234H80.5C54.584,234,33,255.334,33,281.25v121C33,428.166,54.584,449,
                80.5,449h351A46.415,46.415,0,0,0,478,402.25v-121C478,255.334,457.416,234,431.5,234ZM170.8,378.025c-2,
                0-3.9-.562-5-2.662L152.1,349H145v23.625c0,3.2-3.6,4.8-7.5,4.8s-7.5-1.6-7.5-4.8v-63.6A4.838,4.838,0,0,1,134.7,
                304h20.7c13.7,0,24.6,5.261,24.6,21.562,0,11.2-5.1,17.681-12.1,20.381l12.2,22.141a3.358,3.358,0,0,1,.5,1.821C180.6,
                373.805,175.4,378.025,170.8,378.025ZM228.9,335c3,0,4.7,2.9,4.7,6.1,0,2.7-1.4,5.9-4.7,5.9H214v17h26.7c3,0,4.7,
                2.9,4.7,6.6,0,3.2-1.4,6.4-4.7,6.4H205.1c-3.4,0-7.1-1.175-7.1-4.375v-63.5c0-3.2,3.7-5.121,7.1-5.121h35.6c3.3,0,
                4.7,3.7,4.7,6.9,0,3.7-1.7,7.1-4.7,7.1H214v17ZM313,372.625c0,3.2-3.75,4.8-7.65,4.8-3.6,0-6.625-.7-8.525-4.2L278,
                338.623v34c0,3.2-4.1,4.8-8,4.8s-8-1.6-8-4.8v-63.5c0-3.3,4-4.8,7.9-4.8,5.6,0,7.9.5,11.7,7.8l16.4,30.9v-34c0-3.3,
                3.6-4.7,7.5-4.7s7.5,1.4,7.5,4.7ZM377.4,318H364v54.625c0,3.2-4.1,4.8-8,4.8s-8-1.6-8-4.8V318H334.2c-3,
                0-4.7-3.3-4.7-7.1,0-3.3,1.4-6.9,4.7-6.9h43.2c3.3,0,4.7,3.6,4.7,6.9C382.1,314.7,380.4,318,377.4,
                318Zm-261.37-84L233.976,123.658a34.166,34.166,0,0,0,44.047-.031L395.971,234Z"/>            
            <path fill="currentColor" d="M155.4,318H145v19h10.4c5.6,0,9-2.5,9-9.5S161,318,155.4,318Z"/>
        </symbol>
        <symbol id="unrent" data-name="unrent" viewBox="0 0 128 128">
            <path fill="currentColor" d="M23.42 67.708a1.01 1.01 0 0 1-.965-.737l-6.284-23.092a1 1 0 0 1 .965-1.263.989.989 0 0 1 .256.033l6.629 1.751.4-.571a43.787 43.787 0 0 1 15.151-13.476 41.978 41.978 0 0 1 19.815-5q.9 0 1.81.04a2.342 2.342 0 0 1 .127 4.668A35.554 35.554 0 0 0 43.8 37.01a37.837 37.837 0 0 0-9.081 10.211l5.815 1.534a1 1 0 0 1 .455 1.671L24.13 67.413a1.014 1.014 0 0 1-.71.295Zm61.848 36.356a43.774 43.774 0 0 0 15.153-13.475l.4-.57 6.632 1.749a1.02 1.02 0 0 0 .962-.264 1 1 0 0 0 .255-.967l-6.285-23.092a1 1 0 0 0-.712-.705 1.023 1.023 0 0 0-.962.263L83.853 83.989a1 1 0 0 0 .454 1.672l5.816 1.539-.733 1.15a34.86 34.86 0 0 1-8.348 9.058 35.569 35.569 0 0 1-17.525 6.95 2.341 2.341 0 0 0 .127 4.667q.907.04 1.811.04a41.978 41.978 0 0 0 19.813-5.002Zm-30.6-9.355a19.75 19.75 0 1 1-19.75-19.75A19.772 19.772 0 0 1 54.67 94.708ZM32.7 90.289a2.314 2.314 0 0 1 3.568-1.715 2.286 2.286 0 0 1 .977 1.6 2 2 0 0 0 3.97-.492 6.231 6.231 0 0 0-4.294-5.193v-1.713a2 2 0 0 0-4 0v1.766a6.286 6.286 0 0 0-4.213 5.517 6.388 6.388 0 0 0 4.768 6.484 11.736 11.736 0 0 1 2.61.742 2.122 2.122 0 0 1 .407 3.05 2.282 2.282 0 0 1-1.729.9 2.312 2.312 0 0 1-2.256-1.554 2 2 0 1 0-3.793 1.271 6.306 6.306 0 0 0 4.206 4.019v1.665a2 2 0 0 0 4 0v-1.816a6.287 6.287 0 0 0 3.857-7.36 5.754 5.754 0 0 0-2.678-3.626 15.075 15.075 0 0 0-3.487-1.124 2.456 2.456 0 0 1-1.913-2.421ZM113.5 28.8l-19.323 9.435v24.134l19.323-11.1ZM98.437 17.839l-6.557-3.731-18.973 11 6.8 3.288Zm4.573 2.6L84.656 30.783l7.3 3.531 18.98-9.362ZM81.776 47.1l-4.512-3.384V32.179L70.341 28.8v22.471l19.323 11.1V38.235l-7.889-3.852Z"/>
        </symbol>
    </defs>
    <view id="delete-view" viewBox="0 0 24 24"/>
    <view id="addUser-view" viewBox="0 50 6.35 6.35"/>
    <view id="search-view" viewBox="50 0 48 48"/>
    <view id="rent-view" viewBox="50 50 512 512"/>
    <view id="unrent-view" viewBox="100 0 128 128"/>
    <use width="50" height="50" transform="translate(0 0)" href="#delete"/>
    <use width="50" height="50" transform="translate(0 50)" href="#addUser"/>
    <use width="50" height="50" transform="translate(50 0)" href="#search"/>
    <use width="50" height="50" transform="translate(50 50)" href="#rent"/>
    <use width="50" height="50" transform="translate(100 0)" href="#unrent"/>
</svg>